<svg xmlns="http://www.w3.org/2000/svg" version="1.1" xmlns:xlink="http://www.w3.org/1999/xlink" xmlns:svgjs="http://svgjs.dev/svgjs" width="1500" height="1500" viewBox="0 0 1500 1500"><g transform="matrix(1,0,0,1,-0.21332335329316265,-0.21332335329350371)"><svg viewBox="0 0 334 334" data-background-color="#ffffff" preserveAspectRatio="xMidYMid meet" height="1500" width="1500" xmlns="http://www.w3.org/2000/svg" xmlns:xlink="http://www.w3.org/1999/xlink"><g id="tight-bounds" transform="matrix(1,0,0,1,0.04749999999998522,0.04750000000001364)"><svg viewBox="0 0 333.90454557049503 333.90454557049503" height="333.90454557049503" width="333.90454557049503"><g><svg></svg></g><g><svg viewBox="0 0 333.90454557049503 333.90454557049503" height="333.90454557049503" width="333.90454557049503"><g><path d="M0 166.952c0-92.205 74.747-166.952 166.952-166.952 92.205 0 166.952 74.747 166.953 166.952 0 92.205-74.747 166.952-166.953 166.953-92.205 0-166.952-74.747-166.952-166.953zM166.952 324.664c87.102 0 157.711-70.61 157.712-157.712 0-87.102-70.61-157.711-157.712-157.711-87.102 0-157.711 70.61-157.711 157.711 0 87.102 70.61 157.711 157.711 157.712z" data-fill-palette-color="tertiary" fill="#ee3e38" stroke="transparent"></path><ellipse rx="160.27418187383762" ry="160.27418187383762" cx="166.95227278524752" cy="166.95227278524752" fill="#ee3e38" stroke="transparent" stroke-width="0" fill-opacity="1" data-fill-palette-color="tertiary"></ellipse></g><g transform="matrix(1,0,0,1,90.1226422526865,71.17305217166896)"><svg viewBox="0 0 153.65926106512202 191.55844122715712" height="191.55844122715712" width="153.65926106512202"><g><svg viewBox="0 0 153.65926106512202 191.55844122715712" height="191.55844122715712" width="153.65926106512202"><g><svg viewBox="0 0 153.65926106512202 191.55844122715712" height="191.55844122715712" width="153.65926106512202"><g><svg viewBox="0 0 153.65926106512202 191.55844122715712" height="191.55844122715712" width="153.65926106512202"><g id="textblocktransform"><svg viewBox="0 0 153.65926106512202 191.55844122715712" height="191.55844122715712" width="153.65926106512202" id="textblock"><g><svg viewBox="0 0 153.65926106512202 191.55844122715712" height="191.55844122715712" width="153.65926106512202"><g transform="matrix(1,0,0,1,0,0)"><svg width="153.65926106512202" viewBox="1.7000000000000002 -35.15 30.8 38.15" height="191.55844122715712" data-palette-color="#ffffff"><path d="M29.5-32.15L29.25-9.4 29.35 0 25.15 0 8.55-25.65 8.3-25.65 8.25-10.55 8.3 0 4.7 0 4.85-9.5 4.75-32.05 8.9-32.05 25.45-6.4 25.8-6.4 25.75-31.85 29.5-32.15Z" opacity="1" transform="matrix(1,0,0,1,0,0)" fill="#ffffff" class="wordmark-text-0" data-fill-palette-color="quaternary" id="text-0"></path></svg></g></svg></g></svg></g></svg></g></svg></g></svg></g></svg></g></svg></g><defs></defs></svg><rect width="333.90454557049503" height="333.90454557049503" fill="none" stroke="none" visibility="hidden"></rect></g></svg></g></svg>